<?xml version="1.0" encoding="UTF-8"?><svg xmlns="http://www.w3.org/2000/svg" viewBox="0 0 357.69 282.95"><defs><style>.d{fill:#fff;}</style></defs><g id="a"/><g id="b"><g id="c"><g><path class="d" d="M44.61,1.45c37.92,33.01,72.1,70.31,101.68,110.97"/><path class="d" d="M43.55,2.51c14.76,12.85,28.95,26.35,42.53,40.44,13.58,14.09,26.53,28.78,38.82,44.01,6.92,8.57,13.61,17.31,20.09,26.22,1.13,1.55,3.73,.05,2.59-1.51-11.59-15.92-23.87-31.35-36.81-46.2-12.9-14.81-26.46-29.05-40.62-42.67C62.18,15.12,54.02,7.66,45.67,.39c-1.45-1.26-3.58,.85-2.12,2.12h0Z"/></g><ellipse class="d" cx="247.88" cy="66.9" rx="22.8" ry="45.61"/><path class="d" d="M.23,163.94c14.57,23.8,32.71,45.44,53.91,63.6,20.17,17.27,43.03,31.38,67.76,41.09,24.44,9.59,50.59,14.6,76.86,14.31,27.35-.3,54.54-6.17,79.76-16.68,26.22-10.93,50.28-26.72,70.96-46.18,2.65-2.49,5.24-5.04,7.77-7.65,1.35-1.38-.77-3.51-2.12-2.12-19.74,20.26-42.93,37.07-68.55,49.11-24.43,11.49-51.02,18.55-77.99,20.16-26.14,1.56-52.32-2.12-77.08-10.61-24.65-8.45-47.71-21.47-68.1-37.66-21.38-16.98-39.95-37.44-55.05-60.18-1.91-2.87-3.75-5.78-5.55-8.72-1.01-1.64-3.6-.14-2.59,1.51H.23Z"/></g></g></svg>