<?xml version="1.0" encoding="UTF-8"?><svg xmlns="http://www.w3.org/2000/svg" xmlns:xlink="http://www.w3.org/1999/xlink" viewBox="0 0 481.02 214.18"><defs><style>.h{clip-path:url(#e);}.i{clip-path:url(#d);}.j{fill:none;}.k{clip-path:url(#f);}</style><clipPath id="d"><path class="j" d="M361,214.18c-17.16,0-31.08-13.91-31.08-31.08V78.54c0-23.78,7.12-42.81,21.36-57.1C365.51,7.15,384.47,0,408.15,0s41.61,6.94,54.12,20.82c12.5,13.88,18.75,33.83,18.75,59.86v102.42c0,17.16-13.91,31.08-31.08,31.08h0c-17.16,0-31.08-13.91-31.08-31.08V80.68c0-12.76-4.54-19.14-13.63-19.14s-13.17,6.38-13.17,19.14v102.42c0,17.16-13.91,31.08-31.08,31.08h0Z"/></clipPath><clipPath id="e"><path class="j" d="M294.55,109.77h0c0,12.85-10.42,23.27-23.27,23.27h-17.3c-5.51,0-9.42,.82-11.71,2.45-2.3,1.63-3.44,4.39-3.44,8.27,0,4.39,1.17,7.27,3.52,8.65,2.35,1.38,7.14,2.07,14.39,2.07h18.52c12.85,0,23.27,10.42,23.27,23.27v13.17c0,12.85-10.42,23.27-23.27,23.27h-25.57c-22.96,0-40.52-5.49-52.67-16.46-12.15-10.97-18.22-26.82-18.22-47.54V68.28c0-20,5.74-35.52,17.22-46.54,11.48-11.02,27.63-16.53,48.45-16.53h30.77c12.85,0,23.27,10.42,23.27,23.27v13.47c0,12.85-10.42,23.27-23.27,23.27h-16.38c-10.72,0-16.08,3.47-16.08,10.41,0,4.08,1.28,6.92,3.83,8.5,2.55,1.58,7.09,2.37,13.63,2.37h11.02c12.85,0,23.27,10.42,23.27,23.27Z"/></clipPath><clipPath id="f"><path class="j" d="M146.64,40.74l-33.95,77.9c-7.31,16.77,4.98,35.53,23.27,35.53h0c14.02,0,25.39,11.37,25.39,25.39v9.24c0,14.02-11.37,25.39-25.39,25.39H42.36c-18.27,0-30.56-18.73-23.29-35.49L52.89,100.71c7.27-16.77-5.02-35.49-23.29-35.49h-4.21C11.37,65.22,0,53.85,0,39.83v-9.24C0,16.57,11.37,5.21,25.39,5.21H123.37c18.29,0,30.58,18.76,23.27,35.53Z"/></clipPath><image id="g" transform="translate(-55.15 -183.26) scale(.75)" xlink:href="../../provina.png"/></defs><g id="a"/><g id="b"><g id="c"><g class="i"><use xlink:href="#g"/></g><g class="h"><use xlink:href="#g"/></g><g class="k"><use xlink:href="#g"/></g></g></g></svg>